<?xml version="1.0" encoding="UTF-8"?>
<svg id="_레이어_2" data-name="레이어 2" xmlns="http://www.w3.org/2000/svg" viewBox="0 0 94.72 69.91">
  <defs>
    <style>
      .cls-1 {
        fill: #3fa27e;
      }

      .cls-2 {
        fill: #d9e7ea;
      }

      .cls-3 {
        fill: #45bb89;
      }

      .cls-4 {
        fill: #98acb6;
      }

      .cls-5 {
        fill: #d3e7ea;
      }

      .cls-6 {
        fill: #51535f;
      }

      .cls-7 {
        fill: #c0d8dc;
      }

      .cls-8 {
        fill: #525760;
      }

      .cls-9 {
        fill: #bad7dc;
      }
    </style>
  </defs>
  <g id="Layer_1" data-name="Layer 1">
    <g>
      <g>
        <g>
          <path class="cls-4" d="M76.01,62.58c-.29,0-.53-.24-.53-.53v-8.24c0-.29.24-.53.53-.53s.53.24.53.53v8.24c0,.29-.24.53-.53.53Z"/>
          <path class="cls-4" d="M66.61,57.16c-.18,0-.36-.09-.46-.26-.15-.25-.06-.58.19-.72l7.13-4.12c.25-.15.58-.06.72.19.15.25.06.58-.19.72l-7.13,4.12c-.08.05-.17.07-.26.07Z"/>
          <path class="cls-4" d="M73.74,50.42c-.09,0-.18-.02-.26-.07l-7.13-4.12c-.25-.15-.34-.47-.19-.72.15-.25.47-.34.72-.19l7.13,4.12c.25.15.34.47.19.72-.1.17-.28.26-.46.26Z"/>
          <path class="cls-4" d="M76.01,49.1c-.29,0-.53-.24-.53-.53v-8.24c0-.29.24-.53.53-.53s.53.24.53.53v8.24c0,.29-.24.53-.53.53Z"/>
          <path class="cls-4" d="M78.29,50.42c-.18,0-.36-.09-.46-.26-.15-.25-.06-.58.19-.72l7.13-4.12c.25-.15.58-.06.72.19.15.25.06.58-.19.72l-7.13,4.12c-.08.05-.17.07-.26.07Z"/>
          <path class="cls-4" d="M85.42,57.16c-.09,0-.18-.02-.26-.07l-7.13-4.12c-.25-.15-.34-.47-.19-.72.15-.25.47-.34.72-.19l7.13,4.12c.25.15.34.47.19.72-.1.17-.28.26-.46.26Z"/>
        </g>
        <path class="cls-3" d="M76.02,33.7c-9.67,0-17.5,7.84-17.5,17.49s7.84,17.5,17.5,17.5,17.49-7.84,17.49-17.5-7.84-17.49-17.49-17.49ZM76.02,61.97c-5.94,0-10.77-4.83-10.77-10.77s4.83-10.77,10.77-10.77,10.77,4.83,10.77,10.77-4.83,10.77-10.77,10.77Z"/>
        <g>
          <path class="cls-8" d="M76.02,69.38c-10.03,0-18.18-8.16-18.18-18.18s8.16-18.17,18.18-18.17,18.17,8.15,18.17,18.17-8.15,18.18-18.17,18.18ZM76.02,34.38c-9.28,0-16.82,7.54-16.82,16.81s7.55,16.82,16.82,16.82,16.82-7.55,16.82-16.82-7.54-16.81-16.82-16.81Z"/>
          <path class="cls-6" d="M76.02,69.91c-10.32,0-18.71-8.39-18.71-18.71s8.39-18.7,18.71-18.7,18.7,8.39,18.7,18.7-8.39,18.71-18.7,18.71ZM76.02,33.55c-9.73,0-17.65,7.92-17.65,17.65s7.92,17.65,17.65,17.65,17.65-7.92,17.65-17.65-7.92-17.65-17.65-17.65ZM76.02,68.55c-9.57,0-17.35-7.78-17.35-17.35s7.78-17.34,17.35-17.34,17.34,7.78,17.34,17.34-7.78,17.35-17.34,17.35ZM76.02,34.91c-8.98,0-16.29,7.31-16.29,16.29s7.31,16.29,16.29,16.29,16.29-7.31,16.29-16.29-7.31-16.29-16.29-16.29Z"/>
        </g>
        <path class="cls-1" d="M76.02,62.32c-6.13,0-11.13-4.99-11.13-11.13s4.99-11.12,11.13-11.12,11.12,4.99,11.12,11.12-4.99,11.13-11.12,11.13ZM76.02,40.78c-5.75,0-10.42,4.67-10.42,10.41s4.67,10.42,10.42,10.42,10.41-4.67,10.41-10.42-4.67-10.41-10.41-10.41Z"/>
      </g>
      <g>
        <g>
          <path class="cls-4" d="M18.71,62.58c-.29,0-.53-.24-.53-.53v-8.24c0-.29.24-.53.53-.53s.53.24.53.53v8.24c0,.29-.24.53-.53.53Z"/>
          <path class="cls-4" d="M9.3,57.16c-.18,0-.36-.09-.46-.26-.15-.25-.06-.58.19-.72l7.13-4.12c.25-.15.58-.06.72.19.15.25.06.58-.19.72l-7.13,4.12c-.08.05-.17.07-.26.07Z"/>
          <path class="cls-4" d="M16.44,50.42c-.09,0-.18-.02-.26-.07l-7.13-4.12c-.25-.15-.34-.47-.19-.72.15-.25.47-.34.72-.19l7.13,4.12c.25.15.34.47.19.72-.1.17-.28.26-.46.26Z"/>
          <path class="cls-4" d="M18.71,49.1c-.29,0-.53-.24-.53-.53v-8.24c0-.29.24-.53.53-.53s.53.24.53.53v8.24c0,.29-.24.53-.53.53Z"/>
          <path class="cls-4" d="M20.98,50.42c-.18,0-.36-.09-.46-.26-.15-.25-.06-.58.19-.72l7.13-4.12c.25-.15.58-.06.72.19.15.25.06.58-.19.72l-7.13,4.12c-.08.05-.17.07-.26.07Z"/>
          <path class="cls-4" d="M28.11,57.16c-.09,0-.18-.02-.26-.07l-7.13-4.12c-.25-.15-.34-.47-.19-.72.15-.25.47-.34.72-.19l7.13,4.12c.25.15.34.47.19.72-.1.17-.28.26-.46.26Z"/>
        </g>
        <path class="cls-3" d="M18.71,33.7c-9.67,0-17.5,7.84-17.5,17.49s7.84,17.5,17.5,17.5,17.49-7.84,17.49-17.5-7.84-17.49-17.49-17.49ZM18.71,61.97c-5.94,0-10.77-4.83-10.77-10.77s4.83-10.77,10.77-10.77,10.77,4.83,10.77,10.77-4.83,10.77-10.77,10.77Z"/>
        <g>
          <path class="cls-8" d="M18.71,69.38c-10.03,0-18.18-8.16-18.18-18.18s8.16-18.17,18.18-18.17,18.17,8.15,18.17,18.17-8.15,18.18-18.17,18.18ZM18.71,34.38c-9.28,0-16.82,7.54-16.82,16.81s7.55,16.82,16.82,16.82,16.81-7.55,16.81-16.82-7.54-16.81-16.81-16.81Z"/>
          <path class="cls-6" d="M18.71,69.91c-10.32,0-18.71-8.39-18.71-18.71s8.39-18.7,18.71-18.7,18.7,8.39,18.7,18.7-8.39,18.71-18.7,18.71ZM18.71,33.55c-9.73,0-17.65,7.92-17.65,17.65s7.92,17.65,17.65,17.65,17.64-7.92,17.64-17.65-7.92-17.65-17.64-17.65ZM18.71,68.55c-9.57,0-17.35-7.78-17.35-17.35s7.78-17.34,17.35-17.34,17.34,7.78,17.34,17.34-7.78,17.35-17.34,17.35ZM18.71,34.91c-8.98,0-16.29,7.31-16.29,16.29s7.31,16.29,16.29,16.29,16.29-7.31,16.29-16.29-7.31-16.29-16.29-16.29Z"/>
        </g>
        <path class="cls-1" d="M18.71,62.32c-6.13,0-11.13-4.99-11.13-11.13s4.99-11.12,11.13-11.12,11.12,4.99,11.12,11.12-4.99,11.13-11.12,11.13ZM18.71,40.78c-5.75,0-10.42,4.67-10.42,10.41s4.67,10.42,10.42,10.42,10.41-4.67,10.41-10.42-4.67-10.41-10.41-10.41Z"/>
      </g>
      <g>
        <path class="cls-8" d="M84.78,36.71c-2.46-1.33-5.28-2.08-8.28-2.08-9.67,0-17.5,7.84-17.5,17.49h-1.44c-.89,0-1.61-.76-1.54-1.64.84-10.57,9.68-18.89,20.48-18.89,3.02,0,6.47.78,8.47,1.82.73.38,1,1.28.58,1.99l-.77,1.31Z"/>
        <path class="cls-6" d="M59,52.66h-1.44c-.58,0-1.14-.24-1.53-.67-.39-.42-.58-.98-.54-1.54.86-10.87,10.09-19.38,21.01-19.38,3,0,6.58.77,8.71,1.88.48.25.84.69.99,1.21.15.52.08,1.06-.2,1.52l-.77,1.31c-.14.25-.46.33-.71.2-2.45-1.32-5.23-2.02-8.03-2.02-9.36,0-16.97,7.61-16.97,16.97,0,.29-.24.53-.53.53ZM76.5,32.12c-10.37,0-19.13,8.09-19.95,18.41-.02.27.07.54.26.74.19.21.47.33.75.33h.92c.28-9.7,8.26-17.5,18.02-17.5,2.8,0,5.59.66,8.08,1.91l.52-.88c.12-.21.16-.46.09-.69-.07-.24-.23-.44-.46-.56-2-1.04-5.38-1.76-8.22-1.76Z"/>
      </g>
      <g>
        <path class="cls-2" d="M69.45,22.8c-1.17-2.66-2.06-2.66-3.74-2.66-1.05,0-2.06.42-2.8,1.16l-20.1,20.54s-.02,0-.03,0l-6.06-16.46-7.07.15,6.74,17.93c-1.31,1.17-2.19,2.82-2.36,4.68h-14.91c-3.85,0-3.85,6.13,0,6.13h17.46c1.24,1.03,2.82,1.65,4.56,1.65,3.94,0,7.13-3.19,7.14-7.13l17.2-18.13,7.45,20.07,5.59-1.91-9.06-26.01Z"/>
        <path class="cls-7" d="M41.13,56.44c-1.72,0-3.4-.58-4.74-1.65h-17.27c-2.24,0-3.41-1.81-3.41-3.59s1.17-3.59,3.41-3.59h14.44c.25-1.63,1.02-3.13,2.21-4.3l-6.62-17.6c-.06-.16-.04-.34.06-.48.1-.14.25-.23.43-.23l7.07-.15c.25.03.43.13.51.35l5.79,15.71,19.53-19.96c.85-.85,1.98-1.32,3.18-1.32,1.91,0,2.97.13,4.23,2.97,0,.01.01.03.02.04l9.06,26.01c.05.13.04.28-.02.41-.06.13-.17.22-.31.27l-5.59,1.91c-.27.09-.57-.05-.67-.32l-7.16-19.28-16.47,17.36c-.12,4.12-3.51,7.44-7.66,7.44ZM19.11,48.66c-1.62,0-2.35,1.31-2.35,2.53s.74,2.53,2.35,2.53h17.46c.12,0,.24.04.34.12,1.18.98,2.68,1.52,4.22,1.52,3.64,0,6.6-2.96,6.61-6.6,0-.13.05-.27.14-.36l17.2-18.13c.13-.13.31-.19.49-.15.18.04.33.16.39.33l7.28,19.59,4.6-1.57-8.88-25.49c-1.03-2.32-1.63-2.32-3.25-2.32-.92,0-1.78.36-2.43,1.01l-20.09,20.53c-.14.14-.34.19-.52.14-.17-.04-.33-.17-.39-.34l-5.93-16.11-5.94.13,6.48,17.23c.08.21.02.44-.14.58-1.26,1.12-2.04,2.66-2.18,4.33-.02.27-.25.48-.53.48h-14.91Z"/>
      </g>
      <g>
        <circle class="cls-8" cx="41.13" cy="48.77" r="3.16"/>
        <path class="cls-6" d="M41.13,52.46c-2.04,0-3.69-1.66-3.69-3.69s1.66-3.69,3.69-3.69,3.69,1.66,3.69,3.69-1.66,3.69-3.69,3.69ZM41.13,46.14c-1.45,0-2.63,1.18-2.63,2.63s1.18,2.63,2.63,2.63,2.63-1.18,2.63-2.63-1.18-2.63-2.63-2.63Z"/>
      </g>
      <g>
        <path class="cls-5" d="M79.69,51.2c0-2.03-1.64-3.67-3.67-3.67s-3.67,1.64-3.67,3.67,1.64,3.67,3.67,3.67,3.67-1.64,3.67-3.67Z"/>
        <path class="cls-9" d="M76.01,55.4c-2.32,0-4.2-1.88-4.2-4.2s1.88-4.2,4.2-4.2,4.2,1.88,4.2,4.2-1.88,4.2-4.2,4.2ZM76.01,48.06c-1.73,0-3.14,1.41-3.14,3.14s1.41,3.14,3.14,3.14,3.14-1.41,3.14-3.14-1.41-3.14-3.14-3.14Z"/>
      </g>
      <g>
        <circle class="cls-8" cx="76.01" cy="51.2" r="1.52"/>
        <path class="cls-6" d="M76.01,53.24c-1.13,0-2.04-.92-2.04-2.04s.92-2.05,2.04-2.05,2.05.92,2.05,2.05-.92,2.04-2.05,2.04ZM76.01,50.21c-.54,0-.99.44-.99.99s.44.99.99.99.99-.44.99-.99-.44-.99-.99-.99Z"/>
      </g>
      <g>
        <path class="cls-5" d="M22.38,51.2c0-2.03-1.64-3.67-3.67-3.67s-3.67,1.64-3.67,3.67,1.64,3.67,3.67,3.67,3.67-1.64,3.67-3.67Z"/>
        <path class="cls-9" d="M18.71,55.4c-2.32,0-4.2-1.88-4.2-4.2s1.88-4.2,4.2-4.2,4.2,1.88,4.2,4.2-1.88,4.2-4.2,4.2ZM18.71,48.06c-1.73,0-3.14,1.41-3.14,3.14s1.41,3.14,3.14,3.14,3.14-1.41,3.14-3.14-1.41-3.14-3.14-3.14Z"/>
      </g>
      <g>
        <path class="cls-8" d="M20.22,51.2c0-.84-.68-1.52-1.52-1.52s-1.52.68-1.52,1.52.68,1.52,1.52,1.52,1.52-.68,1.52-1.52Z"/>
        <path class="cls-6" d="M18.71,53.24c-1.13,0-2.05-.92-2.05-2.04s.92-2.05,2.05-2.05,2.05.92,2.05,2.05-.92,2.04-2.05,2.04ZM18.71,50.21c-.54,0-.99.44-.99.99s.44.99.99.99.99-.44.99-.99-.44-.99-.99-.99Z"/>
      </g>
      <g>
        <path class="cls-8" d="M25.09,25.68h17.68c.88,0,1.46-1.3,1.01-2.06-1.12-1.86-5.67-2.13-11.96-2.75-3.06-2.6-4.48-3.47-6.84-1.83-2.15,1.5-3.82,4.02-1.42,6.07.43.36.97.57,1.53.57Z"/>
        <path class="cls-6" d="M42.76,26.21h-17.68c-.68,0-1.35-.25-1.87-.69-.94-.8-1.41-1.78-1.36-2.81.07-1.4,1.1-2.9,2.82-4.1,2.73-1.91,4.51-.66,7.36,1.75l1.47.14c5.76.56,9.57.92,10.72,2.85.33.55.31,1.32-.05,1.96-.32.57-.85.91-1.41.91ZM27.18,18.73c-.61,0-1.2.25-1.9.75-1.43,1-2.32,2.22-2.37,3.28-.04.71.3,1.36.99,1.96.33.28.75.44,1.18.44h17.68c.26,0,.44-.28.49-.37.17-.3.2-.67.07-.89-.88-1.47-4.87-1.85-9.92-2.34l-1.64-.16c-.11-.01-.21-.05-.29-.12-2.03-1.72-3.19-2.54-4.29-2.54Z"/>
      </g>
      <g>
        <path class="cls-8" d="M66.04,24.04h0c-.69.27-1.46-.07-1.73-.76l-5.02-12.88,2.49-.97,5.02,12.88c.27.69-.07,1.46-.76,1.73Z"/>
        <path class="cls-6" d="M65.56,24.66c-.75,0-1.45-.45-1.74-1.19l-5.02-12.88c-.11-.27.03-.58.3-.69l2.49-.97c.27-.11.58.03.69.3l5.02,12.88c.18.46.17.97-.03,1.43-.2.46-.57.81-1.03.99h0c-.22.09-.45.13-.67.13ZM66.04,24.04h0,0ZM59.97,10.7l4.83,12.39c.16.41.63.62,1.04.46.41-.16.62-.63.46-1.04l-4.83-12.39-1.5.59Z"/>
      </g>
      <g>
        <path class="cls-8" d="M56.15,13c-1.69,0-3.55-.28-5.55-.84-.69-.19-1.1-.92-.91-1.61.19-.7.91-1.1,1.61-.91,4.22,1.18,7.57.96,9.67-.64,1.82-1.38,2.75-3.8,2.75-7.17,0-.72.59-1.31,1.31-1.31s1.31.59,1.31,1.31c0,4.18-1.31,7.38-3.78,9.25-1.68,1.27-3.84,1.91-6.4,1.91Z"/>
        <path class="cls-6" d="M56.15,13.53c-1.74,0-3.66-.29-5.7-.86-.47-.13-.87-.44-1.11-.87-.24-.43-.3-.92-.17-1.4.13-.47.44-.87.87-1.11s.92-.3,1.4-.17c4.06,1.13,7.24.94,9.21-.55,1.69-1.28,2.54-3.55,2.54-6.75,0-1.01.82-1.84,1.84-1.84s1.84.82,1.84,1.84c0,4.35-1.38,7.69-3.99,9.67-1.77,1.34-4.03,2.02-6.72,2.02ZM50.94,10.13c-.13,0-.26.03-.38.1-.18.1-.31.27-.37.47-.06.2-.03.41.07.59.1.18.27.31.47.37,4.85,1.35,8.86,1.01,11.5-.98,2.34-1.77,3.57-4.83,3.57-8.83,0-.43-.35-.78-.78-.78s-.78.35-.78.78c0,3.55-1,6.1-2.96,7.59-2.24,1.7-5.75,1.95-10.14.73-.07-.02-.14-.03-.21-.03Z"/>
      </g>
      <circle class="cls-8" cx="58.86" cy="30.98" r="2"/>
      <path class="cls-3" d="M56.41,32.48c.52,0,.94.42.94.94s-.42.94-.94.94-.94-.42-.94-.94.42-.94.94-.94M56.41,31.42c-1.11,0-2,.9-2,2s.9,2,2,2,2-.9,2-2-.9-2-2-2h0Z"/>
      <g>
        <path class="cls-6" d="M83.78,17.79h-14.91c-.92,0-1.66-.74-1.66-1.65v-6.98c0-.81.58-1.49,1.38-1.63l14.92-2.54c.48-.08.96.05,1.33.36.37.31.57.76.57,1.23v9.59c0,.89-.73,1.62-1.63,1.62ZM83.78,6.01s-.07,0-.1,0l-14.92,2.54c-.29.05-.5.29-.5.58v6.98c0,.33.27.59.6.59h14.91c.31,0,.57-.25.57-.56V6.57c0-.17-.07-.32-.2-.42-.1-.09-.24-.14-.37-.14Z"/>
        <path class="cls-6" d="M67.78,14.69c-.29,0-.53-.23-.53-.53,0-.29.23-.53.53-.53l17.1-.14h0c.29,0,.53.23.53.53,0,.29-.23.53-.53.53l-17.1.14h0Z"/>
        <path class="cls-6" d="M67.78,11.45c-.27,0-.51-.21-.53-.49-.02-.29.2-.55.49-.57l16.91-1.28c.28,0,.55.2.57.49.02.29-.2.55-.49.57l-16.91,1.28s-.03,0-.04,0Z"/>
        <path class="cls-6" d="M72.77,17.79c-.29,0-.53-.24-.53-.53V7.79c0-.29.24-.53.53-.53s.53.24.53.53v9.47c0,.29-.24.53-.53.53Z"/>
        <path class="cls-6" d="M80.09,17.79c-.29,0-.53-.24-.53-.53V6.24c0-.29.24-.53.53-.53s.53.24.53.53v11.02c0,.29-.24.53-.53.53Z"/>
      </g>
      <g>
        <path class="cls-8" d="M64.91,13.26h.59c.6,0,1.09.49,1.09,1.09v5.8c0,.6-.49,1.09-1.09,1.09h-.59c-.6,0-1.09-.49-1.09-1.09v-5.8c0-.6.49-1.09,1.09-1.09Z" transform="translate(52.95 -49.07) rotate(64.71)"/>
        <path class="cls-6" d="M62.71,20.39c-.18,0-.37-.03-.55-.1-.41-.15-.74-.44-.92-.84l-.25-.53c-.38-.81-.03-1.78.78-2.16l5.24-2.48c.39-.19.83-.21,1.24-.06.41.15.74.44.92.83l.25.53c.19.39.21.83.06,1.24s-.44.74-.84.92l-5.24,2.48c-.22.1-.46.16-.69.16ZM67.7,15.19c-.08,0-.16.02-.24.05l-5.25,2.48c-.14.06-.24.18-.29.32s-.04.3.02.43l.25.53h0c.06.14.18.24.32.29.14.05.29.04.43-.02l5.25-2.48c.14-.06.24-.18.29-.32.05-.14.04-.3-.02-.43l-.25-.53c-.06-.14-.18-.24-.32-.29-.06-.02-.13-.03-.19-.03Z"/>
      </g>
    </g>
  </g>
</svg>